<?xml version="1.0" encoding="UTF-8"?>
<svg version="1.1" xmlns="http://www.w3.org/2000/svg" width="960" height="720">
<path d="M0 0 C1.46666978 0.00056958 1.46666978 0.00056958 2.96296924 0.00115067 C4.64843588 -0.00183591 4.64843588 -0.00183591 6.36795235 -0.00488281 C7.61792486 -0.00196997 8.86789737 0.00094287 10.15574783 0.00394398 C11.47150612 0.00308955 12.7872644 0.00223513 14.14289415 0.00135481 C17.81195243 -0.00089263 21.4809818 0.00313453 25.15003639 0.00813287 C29.10029432 0.01243363 33.05055048 0.01099122 37.00081009 0.0102306 C43.85052578 0.00970513 50.70023199 0.01285437 57.54994529 0.01846844 C67.45359678 0.02658028 77.35724366 0.02919833 87.26089811 0.03045643 C103.32720458 0.03264745 119.393506 0.03930888 135.45980972 0.04875904 C151.07081207 0.05793187 166.68181304 0.06501334 182.29281753 0.06926686 C183.25436739 0.06952958 184.21591724 0.0697923 185.20660497 0.07006299 C190.03020527 0.07136798 194.85380558 0.0726317 199.67740589 0.07387489 C239.7219835 0.08424906 279.76655546 0.10186872 319.81112808 0.1241985 C321.09832769 2.69491628 322.38513146 5.26583091 323.67170852 7.83686024 C324.03458009 8.56146395 324.39745166 9.28606767 324.77131933 10.03262907 C327.15655586 14.80014721 329.51028046 19.57957262 331.78378433 24.40154225 C332.1088295 25.087822 332.43387466 25.77410176 332.76876968 26.48117787 C333.80596683 28.67363302 334.84007543 30.86752319 335.87362808 33.0616985 C336.23729477 33.83221546 336.60096145 34.60273243 336.97564834 35.3965984 C342.51903522 47.14668598 347.94584371 58.94579454 353.29358047 70.78603321 C358.03433693 81.27971292 362.88629083 91.71571095 367.81112808 102.1241985 C373.07443704 113.24846815 378.24377048 124.40930835 383.31112808 135.6241985 C388.44419307 146.98304335 393.67531226 158.29073518 398.99862808 169.5616985 C405.23797072 182.77442408 411.43522081 196.00362897 417.50790542 209.29412037 C418.77397294 212.0435124 420.06482093 214.77995587 421.36190933 217.5148235 C422.11621227 219.13443047 422.87014502 220.75420993 423.62362808 222.3741985 C423.96780777 223.08318287 424.31198745 223.79216725 424.66659683 224.522636 C426.69981105 228.95400033 426.94684945 231.43496265 425.81112808 236.1241985 C424.77715759 238.61701311 423.70592835 241.00691444 422.52206558 243.42497975 C422.01984482 244.47514775 422.01984482 244.47514775 421.50747818 245.54653126 C420.78481827 247.05623155 420.05887599 248.56436419 419.32998794 250.07106739 C417.36463238 254.13564417 415.42519022 258.21257638 413.48300308 262.288261 C413.08630417 263.11925816 412.68960525 263.95025532 412.28088516 264.80643421 C408.56834151 272.59797924 404.98530604 280.44470376 401.43612808 288.3116985 C395.85822824 300.65609547 390.20239438 312.96244796 384.49862808 325.2491985 C384.09889786 326.11044331 383.69916763 326.97168812 383.28732437 327.85903126 C381.66691821 331.3502559 380.04644477 334.84144927 378.42572159 338.33252674 C374.16713965 347.50752165 369.92435248 356.68978497 365.68612808 365.8741985 C365.31531112 366.67770741 364.94449417 367.48121632 364.56244034 368.30907398 C359.48458608 379.31360133 354.41890826 390.32368543 349.36126846 401.33751637 C347.27506598 405.88022515 345.18786713 410.42247627 343.10057205 414.96468312 C341.18305853 419.13756756 339.26634498 423.31081717 337.35067886 427.48455006 C335.26452117 432.02918696 333.17563843 436.57256321 331.08505386 441.11516529 C330.28286986 442.85937391 329.48158763 444.60399758 328.68124527 446.34905201 C327.57195706 448.76738441 326.45950414 451.18423643 325.34628433 453.600761 C325.01689361 454.32079304 324.6875029 455.04082508 324.34813064 455.78267628 C322.98829919 458.72706478 321.61455538 461.41905755 319.81112808 464.1241985 C317.49805766 464.49679399 317.49805766 464.49679399 314.53623909 464.49334198 C313.41060362 464.49931513 312.28496814 464.50528827 311.1252225 464.51144242 C309.87816284 464.5027039 308.63110317 464.49396537 307.34625381 464.48496205 C305.37133475 464.48880696 305.37133475 464.48880696 303.35651833 464.49272954 C299.68963218 464.49946377 296.02300701 464.48740185 292.35615414 464.47239536 C288.40659534 464.45948132 284.45705214 464.46382116 280.50747818 464.46610218 C273.6604767 464.46767786 266.81356077 464.45823797 259.96658081 464.44138867 C250.06692093 464.41704302 240.16730256 464.40919795 230.26761599 464.40542469 C214.20738952 464.39885323 198.14720867 464.37887325 182.08700699 464.35051686 C166.48284265 464.32299425 150.87869069 464.30175188 135.27450699 464.28899342 C134.31321986 464.28820525 133.35193273 464.28741708 132.36151569 464.28660502 C127.53918609 464.28269001 122.7168564 464.27889886 117.89452666 464.27516931 C77.86669518 464.24405177 37.83891464 464.19119709 -2.18887192 464.1241985 C-3.44485705 461.62128933 -4.69982992 459.11788077 -5.95425278 456.61418873 C-6.30436165 455.91675305 -6.65447052 455.21931736 -7.01518875 454.50074726 C-10.03217001 448.47603896 -12.95520459 442.40956157 -15.81704575 436.30950123 C-16.13170792 435.63909809 -16.44637009 434.96869496 -16.77056748 434.27797657 C-17.09423294 433.58785481 -17.41789841 432.89773304 -17.75137192 432.1866985 C-18.09235916 431.46120808 -18.43334641 430.73571766 -18.7846666 429.98824269 C-24.08263659 418.71229302 -29.2794503 407.39293494 -34.41506821 396.0422588 C-39.71385151 384.33158338 -45.08950878 372.65803148 -50.50137192 360.9991985 C-50.90067917 360.13879963 -51.29998642 359.27840077 -51.71139389 358.39192921 C-53.33069399 354.90284825 -54.95010127 351.4138171 -56.56976181 347.92490345 C-67.22367725 324.97150803 -77.85046579 302.00402231 -88.32412583 278.96770436 C-88.96905229 277.54977465 -89.61407164 276.13188719 -90.25918442 274.71404225 C-90.57714981 274.0152042 -90.89511521 273.31636616 -91.22271591 272.59635121 C-93.27291233 268.10153123 -95.35529567 263.62287663 -97.45814377 259.15245777 C-98.88937737 256.10615583 -100.30909016 253.05455558 -101.72759873 250.00231129 C-102.40297479 248.55717925 -103.08383515 247.11459593 -103.77050644 245.67479664 C-104.71709041 243.68895083 -105.64426865 241.69507473 -106.56777817 239.69841725 C-107.36550644 238.00591847 -107.36550644 238.00591847 -108.17935044 236.27922779 C-110.20707139 229.94204813 -107.46947564 225.07374434 -104.68105942 219.38591725 C-104.32386826 218.64100529 -103.9666771 217.89609333 -103.59866196 217.12860829 C-102.82874427 215.52433359 -102.05554174 213.921632 -101.27938706 212.32036549 C-99.20170588 208.03229862 -97.14939238 203.73211077 -95.09512192 199.43279225 C-94.67773758 198.56063069 -94.26035324 197.68846913 -93.83032089 196.78987843 C-89.96677978 188.69941388 -86.2459485 180.54847816 -82.56387192 172.3741985 C-77.54196945 161.24074182 -72.41283223 150.16428345 -67.18887192 139.1241985 C-61.92550049 127.99995921 -56.75622893 116.83908735 -51.68887192 105.6241985 C-45.90116721 92.81671602 -39.96790148 80.08355803 -33.96499497 67.37566334 C-29.93868065 58.85094986 -25.9439943 50.31306976 -22.00137192 41.7491985 C-21.53215317 40.73035572 -21.06293442 39.71151295 -20.57949692 38.66179615 C-19.62621769 36.59122913 -18.67309441 34.52059031 -17.72012192 32.44988209 C-15.11308257 26.78771849 -12.50228671 21.12731567 -9.88403183 15.47032887 C-9.29923274 14.20578145 -8.71525798 12.94085245 -8.13213974 11.67552906 C-7.32626638 9.92700901 -6.5174092 8.17986509 -5.70840317 6.43279225 C-5.01388047 4.92930226 -5.01388047 4.92930226 -4.305327 3.39543873 C-2.71189812 0.15387546 -2.71189812 0.15387546 0 0 Z " fill="#000000" transform="translate(321.1888719201088,127.8758015036583)"/>
<path d="M0 0 C56.76 0 113.52 0 172 0 C172 126.72 172 253.44 172 384 C203.35 384 234.7 384 267 384 C267 376.08 267 368.16 267 360 C271.07041773 363.48892948 274.90248906 366.77757261 278.65014648 370.53662109 C279.49048935 371.37703949 280.33083221 372.21745789 281.19664001 373.08334351 C282.07920975 373.97107452 282.96177948 374.85880554 283.87109375 375.7734375 C285.25458763 377.1590538 285.25458763 377.1590538 286.66603088 378.57266235 C289.09633814 381.00675431 291.52362496 383.44383597 293.95025635 385.8815918 C296.43569364 388.3773311 298.92402932 390.87017708 301.41210938 393.36328125 C306.27755096 398.2393886 311.13980198 403.11866631 316 408 C311.06381088 413.95114419 305.73316843 419.41216448 300.26171875 424.87109375 C298.87965996 426.25458763 298.87965996 426.25458763 297.46968079 427.66603088 C295.53405783 429.60311761 293.5966639 431.53841008 291.65795898 433.47241211 C289.16836848 435.95625795 286.68335917 438.44463157 284.19961834 440.93432522 C281.82690356 443.3115042 279.45040651 445.68488623 277.07421875 448.05859375 C276.17950363 448.9553331 275.28478851 449.85207245 274.36296082 450.77598572 C273.54153091 451.59426346 272.72010101 452.4125412 271.8737793 453.25561523 C271.14797165 453.98062729 270.422164 454.70563934 269.67436218 455.45262146 C268 457 268 457 267 457 C267 449.08 267 441.16 267 433 C219.48 433 171.96 433 123 433 C123 428.05 123 423.1 123 418 C120.0609375 419.5778125 120.0609375 419.5778125 117.0625 421.1875 C105.60346346 427.096627 92.56349128 431.13554257 79.6394043 431.11352539 C78.91690994 431.11367142 78.19441559 431.11381744 77.45002747 431.1139679 C75.07472678 431.11327422 72.69950565 431.10550745 70.32421875 431.09765625 C68.67226708 431.09579013 67.02031485 431.09436714 65.36836243 431.09336853 C61.02992208 431.08955861 56.69151545 431.07974139 52.35308838 431.06866455 C47.92224585 431.0584176 43.49139785 431.05386388 39.06054688 431.04882812 C30.37368075 431.03811771 21.68684846 431.0205333 13 431 C13 439.25 13 447.5 13 456 C8.83088879 452.42647611 4.91631188 449.04072069 1.07446289 445.18798828 C0.17405777 444.28750763 -0.72634735 443.38702698 -1.65403748 442.45925903 C-2.61186102 441.49633134 -3.56962851 440.5333479 -4.52734375 439.5703125 C-5.52603017 438.56975714 -6.52494047 437.56942519 -7.52406311 436.56930542 C-10.13191964 433.9576612 -12.73675695 431.34302633 -15.34094238 428.72772217 C-18.00735236 426.05101677 -20.67665464 423.37719898 -23.34570312 420.703125 C-28.56661101 415.47154602 -33.78432751 410.23679904 -39 405 C-34.7707585 399.95316469 -30.35730185 395.20983336 -25.6953125 390.5625 C-24.67109695 389.53684937 -24.67109695 389.53684937 -23.62619019 388.49047852 C-22.1903353 387.05394726 -20.75323338 385.61866148 -19.31494141 384.18457031 C-17.13459685 382.00957331 -14.95963129 379.82930082 -12.78515625 377.6484375 C-11.38052874 376.24447103 -9.97559094 374.84081492 -8.5703125 373.4375 C-7.93046417 372.79562744 -7.29061584 372.15375488 -6.63137817 371.49243164 C-0.38924482 365.28199864 6.23627961 359.63643366 13 354 C13 362.25 13 370.5 13 379 C21.80679177 378.9595074 30.61304819 378.90218147 39.41951466 378.81609726 C43.50975341 378.77676919 47.59978161 378.74450953 51.69018555 378.72900391 C55.64566735 378.71373964 59.60056971 378.67912436 63.55579185 378.63169098 C65.05662658 378.61697697 66.55754409 378.60896478 68.0584507 378.60811615 C80.5127917 378.59400622 91.63939151 377.01490476 100.99609375 368.09765625 C105.99292221 362.88078397 108.81036459 357.85343511 111 351 C111.33 350.01 111.66 349.02 112 348 C112.09541418 346.36940808 112.13373054 344.7351927 112.1386652 343.10181904 C112.14413964 342.08566118 112.14961409 341.06950331 112.15525442 340.02255279 C112.15623253 338.90291631 112.15721064 337.78327983 112.15821838 336.62971497 C112.16315636 335.44292151 112.16809434 334.25612805 112.17318195 333.03337115 C112.18591124 329.7336836 112.19418563 326.43403844 112.20060861 323.13433611 C112.20860613 319.57810608 112.22230613 316.02189756 112.23532104 312.46568298 C112.257093 306.30245957 112.27523486 300.13923398 112.29092598 293.9759922 C112.31361806 285.06492947 112.3417618 276.15389055 112.37124526 267.242848 C112.41892929 252.78601399 112.46219128 238.32917026 112.50268555 223.87231445 C112.54203635 209.82705935 112.58346157 195.7818129 112.62768555 181.73657227 C112.63177196 180.43841144 112.63177196 180.43841144 112.63594092 179.11402515 C112.64962033 174.77245628 112.66334061 170.43088755 112.67708123 166.08931887 C112.79105875 130.05956287 112.89705302 94.02978954 113 58 C75.71 58 38.42 58 0 58 C0 38.86 0 19.72 0 0 Z " fill="#FE0000" transform="translate(340,133)"/>
</svg>
