<?xml version="1.0" standalone="no"?>
<!DOCTYPE svg PUBLIC "-//W3C//DTD SVG 20010904//EN"
 "http://www.w3.org/TR/2001/REC-SVG-20010904/DTD/svg10.dtd">
<svg version="1.0" xmlns="http://www.w3.org/2000/svg"
 width="960.000000pt" height="960.000000pt" viewBox="0 0 960.000000 960.000000"
 preserveAspectRatio="xMidYMid meet">
<metadata>
Created by potrace 1.14, written by Peter Selinger 2001-2017
</metadata>
<g transform="translate(0.000000,960.000000) scale(0.100000,-0.100000)"
fill="#000000" stroke="none">
<path d="M3210 7122 c-19 -2 -31 -16 -52 -60 -43 -90 -118 -251 -149 -322 -16
-36 -34 -73 -39 -82 -6 -10 -10 -25 -10 -33 0 -8 -3 -15 -8 -15 -4 0 -13 -15
-21 -32 -8 -18 -28 -62 -44 -98 -17 -36 -31 -67 -32 -70 0 -3 -23 -50 -50
-105 -26 -55 -49 -102 -50 -105 -4 -12 -25 -60 -54 -123 -17 -37 -31 -70 -31
-74 0 -4 -7 -14 -16 -24 -8 -9 -16 -26 -17 -38 -1 -11 -5 -21 -9 -21 -4 0 -8
-5 -8 -11 0 -10 -21 -57 -105 -234 -86 -180 -137 -291 -140 -300 -3 -12 -47
-107 -125 -270 -118 -246 -123 -260 -124 -300 0 -26 13 -67 36 -115 78 -164
150 -318 153 -330 2 -5 48 -105 90 -195 12 -27 35 -77 50 -110 15 -33 44 -96
65 -140 21 -44 49 -106 64 -137 61 -134 81 -178 127 -276 27 -57 49 -105 49
-107 0 -2 25 -56 55 -121 72 -155 78 -168 111 -239 52 -116 97 -212 180 -382
72 -151 86 -173 106 -172 31 0 300 1 313 0 8 0 304 -1 398 -1 9 0 71 0 136 -1
65 -1 124 2 130 5 6 4 11 4 11 -1 0 -4 43 -8 95 -8 52 0 95 4 95 8 0 5 5 5 10
2 9 -5 117 -8 230 -5 8 0 404 -1 880 -3 476 -1 874 -1 885 1 15 2 33 29 63 93
23 49 42 94 42 99 0 6 5 10 10 10 6 0 10 7 10 15 0 8 4 23 10 33 12 22 110
232 110 237 0 5 98 216 110 237 6 10 10 23 10 30 0 6 6 19 13 27 8 9 21 34 30
56 8 22 34 81 57 130 23 50 55 117 70 150 15 33 45 96 65 140 20 44 50 109 67
145 16 36 42 92 58 125 63 134 93 201 95 210 2 6 19 43 38 83 19 39 32 72 29
72 -4 0 -2 4 3 8 8 6 56 96 60 112 0 3 11 27 23 54 12 27 22 52 22 57 0 5 5 9
10 9 6 0 10 4 10 9 0 5 12 35 27 67 33 72 36 80 36 124 0 33 -12 61 -95 238
-17 37 -32 69 -33 72 -1 3 -18 40 -38 84 -20 43 -37 82 -37 87 0 5 -4 9 -10 9
-5 0 -10 5 -10 12 0 6 -9 30 -19 52 -36 76 -113 241 -138 296 -13 30 -35 78
-48 105 -56 120 -69 150 -67 157 1 3 -5 12 -13 18 -8 7 -15 17 -15 23 0 5 -14
40 -31 76 -58 122 -106 226 -129 276 -34 75 -77 169 -126 274 -24 51 -44 95
-44 97 0 2 -47 100 -104 217 -78 162 -108 214 -122 215 -59 4 -187 2 -195 -3
-5 -4 -9 -3 -9 2 0 4 -30 7 -67 6 -67 -2 -210 -3 -348 -2 -38 0 -74 -1 -80 -2
-5 -1 -13 -1 -17 0 -7 1 -199 1 -228 0 -8 0 -62 0 -120 1 -58 1 -109 1 -115
-1 -5 -1 -14 -1 -19 0 -14 3 -509 3 -521 1 -5 -1 -14 -1 -20 0 -21 4 -218 -1
-226 -6 -5 -3 -9 -2 -9 3 0 7 -51 8 -185 3 -27 -1 -54 -1 -60 0 -22 4 -218 -1
-226 -6 -5 -3 -9 -2 -9 3 0 9 -181 8 -205 -1 -8 -3 -15 -2 -15 2 0 8 -443 7
-464 -1 -8 -3 -16 -3 -18 1 -2 4 -14 6 -28 4z"/>
</g>
</svg>
